<svg width="180" height="40" viewBox="0 0 180 40" fill="none" xmlns="http://www.w3.org/2000/svg">
  <path d="M30 0H10C4.47715 0 0 4.47715 0 10V30C0 35.5228 4.47715 40 10 40H30C35.5228 40 40 35.5228 40 30V10C40 4.47715 35.5228 0 30 0Z" fill="#D88A22"/>
  <path d="M19.2 10L14 14V20L16 23L20 24L24 23L26 20V14L20.8 10H19.2Z" fill="black"/>
  <path d="M20 24V30" stroke="black" stroke-width="2" stroke-linecap="round"/>
  <path d="M16 14L20 16L24 14" stroke="white" stroke-width="1.5" stroke-linecap="round"/>
  <path d="M50 15H55L65 30H59L57 27H53L51 30H45L50 15ZM55 23L54 21L53 23H55Z" fill="black"/>
  <path d="M68 15H75.5C77.5 15 79 15.5 80 16.5C81 17.5 81.5 18.75 81.5 20.25C81.5 22 81 23.25 80 24.25C79 25.25 77.5 25.75 75.5 25.75H74V30H68V15ZM75 22C75.5 22 75.75 21.75 75.75 21.25C75.75 20.75 75.5 20.5 75 20.5H74V22H75Z" fill="black"/>
  <path d="M84 22.5C84 19.5 84.75 17.25 86.25 15.75C87.75 14.25 89.75 13.5 92.25 13.5C94.75 13.5 96.75 14.25 98.25 15.75C99.75 17.25 100.5 19.5 100.5 22.5C100.5 25.5 99.75 27.75 98.25 29.25C96.75 30.75 94.75 31.5 92.25 31.5C89.75 31.5 87.75 30.75 86.25 29.25C84.75 27.75 84 25.5 84 22.5ZM90 22.5C90 23.5 90.25 24.25 90.75 24.75C91.25 25.25 92 25.5 93 25.5C94 25.5 94.75 25.25 95.25 24.75C95.75 24.25 96 23.5 96 22.5C96 21.5 95.75 20.75 95.25 20.25C94.75 19.75 94 19.5 93 19.5C92 19.5 91.25 19.75 90.75 20.25C90.25 20.75 90 21.5 90 22.5Z" fill="black"/>
  <path d="M118 15H124V30H118V27.5C117 30.5 114 31.5 112 31C110 30.5 108 28 108 25V15H114V23.5C114 24 114 24.5 114.5 25C115 25.5 115.5 25.5 116 25.5C116.5 25.5 117 25.5 117.5 25C118 24.5 118 24 118 23.5V15Z" fill="black"/>
  <path d="M127 15H133V18C133.5 15 137 15 137 15V20.5C134 20.5 133 21.5 133 24V30H127V15Z" fill="black"/>
  <path d="M138 22.5C138 19.5 138.75 17.25 140.25 15.75C141.75 14.25 143.75 13.5 146.25 13.5C148.75 13.5 150.75 14.25 152.25 15.75C153.75 17.25 154.5 19.5 154.5 22.5C154.5 25.5 153.75 27.75 152.25 29.25C150.75 30.75 148.75 31.5 146.25 31.5C143.75 31.5 141.75 30.75 140.25 29.25C138.75 27.75 138 25.5 138 22.5ZM144 22.5C144 23.5 144.25 24.25 144.75 24.75C145.25 25.25 146 25.5 147 25.5C148 25.5 148.75 25.25 149.25 24.75C149.75 24.25 150 23.5 150 22.5C150 21.5 149.75 20.75 149.25 20.25C148.75 19.75 148 19.5 147 19.5C146 19.5 145.25 19.75 144.75 20.25C144.25 20.75 144 21.5 144 22.5Z" fill="black"/>
  <path d="M156 15H162V18C163 15.5 165.5 15 167 15C169.5 15 170.5 15.5 171.5 17C173 15 176 14.5 178 15.5C180 16.5 180 19.5 180 21V30H174V22C174 21.5 174 21 173.5 21C173 21 172.5 21.5 172.5 22V30H166.5V22C166.5 21.5 166.5 21 166 21C165.5 21 165 21.5 165 22V30H159V15H156V15Z" fill="black"/>
</svg>
