<svg width="48" height="48" viewBox="0 0 48 48" fill="none" xmlns="http://www.w3.org/2000/svg">
  <rect width="48" height="48" rx="24" fill="#D88A22"/>
  <path d="M24 14C22.3431 14 21 15.3431 21 17C21 18.6569 22.3431 20 24 20C25.6569 20 27 18.6569 27 17C27 15.3431 25.6569 14 24 14Z" fill="white"/>
  <path d="M33.7419 22.4124C33.0342 20.0042 30.8844 18.2452 28.2857 18.2452H19.7143C17.1156 18.2452 14.9658 20.0042 14.2581 22.4124L12 30.5714H16.2857L18.4286 38L21.7143 28L24 38L26.2857 28L29.5714 38L31.7143 30.5714H36L33.7419 22.4124Z" fill="white"/>
</svg>
